<svg xmlns="http://www.w3.org/2000/svg" viewBox="0 0 1536 1536" width="1536" height="1536">
<path d="M769.00,1215.50 L763.50,1211.00 L760.50,1204.00 L757.00,1197.50 L753.00,1191.50 L749.00,1185.50 L745.00,1179.50 L740.50,1174.00 L736.00,1168.50 L731.50,1163.00 L727.00,1157.50 L721.50,1153.00 L717.00,1147.50 L711.00,1143.50 L706.00,1138.50 L700.00,1134.50 L694.50,1130.00 L688.50,1126.00 L682.50,1122.00 L676.00,1118.50 L669.00,1115.50 L662.00,1112.50 L655.00,1109.50 L648.00,1106.50 L640.00,1104.50 L632.00,1102.50 L623.50,1101.00 L615.00,1099.50 L605.00,1099.50 L596.00,1100.50 L587.00,1101.50 L579.00,1103.50 L570.00,1104.50 L562.00,1106.50 L554.50,1109.00 L546.50,1111.00 L539.00,1113.50 L531.00,1115.50 L523.00,1117.50 L515.00,1119.50 L507.50,1122.00 L500.00,1124.50 L492.00,1126.50 L484.00,1128.50 L475.50,1130.00 L467.00,1131.50 L458.50,1133.00 L450.00,1134.50 L441.00,1135.50 L431.00,1135.50 L421.00,1135.50 L411.00,1135.50 L401.00,1135.50 L391.00,1135.50 L382.00,1134.50 L373.00,1133.50 L365.00,1131.50 L356.50,1130.00 L349.00,1127.50 L341.00,1125.50 L333.00,1123.50 L326.00,1120.50 L319.00,1117.50 L311.50,1115.00 L305.00,1111.50 L298.00,1108.50 L292.00,1104.50 L285.50,1101.00 L280.00,1096.50 L284.00,1093.50 L294.00,1093.50 L303.00,1094.50 L313.00,1094.50 L323.00,1094.50 L332.00,1093.50 L341.00,1092.50 L350.00,1091.50 L358.50,1090.00 L367.00,1088.50 L376.00,1087.50 L384.00,1085.50 L392.00,1083.50 L400.00,1081.50 L407.00,1078.50 L415.00,1076.50 L422.00,1073.50 L429.50,1071.00 L436.50,1068.00 L443.50,1065.00 L450.00,1061.50 L457.00,1058.50 L463.00,1054.50 L470.00,1051.50 L476.00,1047.50 L482.00,1043.50 L488.50,1040.00 L494.50,1036.00 L500.50,1032.00 L498.50,1031.00 L491.00,1033.50 L483.00,1035.50 L475.00,1037.50 L467.00,1039.50 L459.00,1041.50 L450.50,1043.00 L442.50,1045.00 L434.00,1046.50 L426.00,1048.50 L417.00,1049.50 L409.00,1051.50 L399.50,1052.00 L391.00,1053.50 L381.00,1053.50 L372.00,1054.50 L363.00,1055.50 L353.00,1055.50 L343.00,1055.50 L333.00,1055.50 L323.50,1055.00 L315.00,1053.50 L305.00,1053.50 L297.00,1051.50 L289.00,1049.50 L280.00,1048.50 L272.00,1046.50 L264.00,1044.50 L256.00,1042.50 L249.00,1039.50 L242.00,1036.50 L235.00,1033.50 L227.50,1031.00 L221.00,1027.50 L214.00,1024.50 L208.00,1020.50 L201.50,1017.00 L195.50,1013.00 L189.50,1009.00 L183.50,1005.00 L178.00,1000.50 L172.50,996.00 L167.00,991.50 L162.00,986.50 L156.50,982.00 L151.50,977.00 L146.50,972.00 L142.00,966.50 L137.50,961.00 L133.00,955.50 L129.00,949.50 L125.50,943.00 L121.50,937.00 L126.00,933.50 L133.00,936.50 L140.00,939.50 L147.00,942.50 L154.00,945.50 L162.00,947.50 L169.00,950.50 L177.00,952.50 L185.00,954.50 L193.00,956.50 L201.00,958.50 L209.50,960.00 L218.00,961.50 L226.00,963.50 L235.00,964.50 L244.00,965.50 L253.00,966.50 L262.00,967.50 L271.00,968.50 L281.00,968.50 L291.00,968.50 L301.00,968.50 L310.00,967.50 L320.00,967.50 L329.00,966.50 L338.00,965.50 L347.00,964.50 L355.50,963.00 L364.00,961.50 L372.00,959.50 L380.00,957.50 L388.00,955.50 L396.00,953.50 L404.00,951.50 L401.00,949.50 L391.00,949.50 L381.00,949.50 L372.00,948.50 L363.00,947.50 L353.00,947.50 L344.00,946.50 L335.00,945.50 L327.00,943.50 L318.00,942.50 L309.00,941.50 L301.00,939.50 L293.00,937.50 L285.00,935.50 L277.00,933.50 L269.00,931.50 L261.00,929.50 L253.00,927.50 L246.00,924.50 L238.00,922.50 L231.00,919.50 L223.50,917.00 L216.50,914.00 L209.00,911.50 L202.00,908.50 L195.50,905.00 L189.00,901.50 L182.50,898.00 L176.00,894.50 L169.50,891.00 L163.50,887.00 L157.50,883.00 L151.50,879.00 L146.00,874.50 L140.00,870.50 L134.50,866.00 L129.00,861.50 L123.50,857.00 L118.50,852.00 L113.50,847.00 L108.50,842.00 L104.00,836.50 L99.50,831.00 L95.00,825.50 L91.00,819.50 L87.00,813.50 L83.00,807.50 L79.00,801.50 L75.50,795.00 L72.50,788.00 L69.00,781.50 L66.00,774.50 L63.50,767.00 L60.50,760.00 L58.50,752.00 L56.50,744.00 L54.50,736.00 L52.50,728.00 L50.50,720.00 L48.50,712.00 L51.00,706.50 L55.50,712.00 L60.00,717.50 L64.50,723.00 L69.00,728.50 L74.00,733.50 L79.00,738.50 L84.00,743.50 L89.50,748.00 L95.00,752.50 L100.50,757.00 L106.00,761.50 L112.00,765.50 L118.00,769.50 L123.50,774.00 L130.00,777.50 L136.00,781.50 L142.00,785.50 L148.50,789.00 L155.00,792.50 L161.50,796.00 L168.00,799.50 L175.00,802.50 L182.00,805.50 L188.50,809.00 L196.00,811.50 L203.00,814.50 L210.00,817.50 L218.00,819.50 L225.50,822.00 L233.00,824.50 L241.00,826.50 L249.00,828.50 L257.00,830.50 L266.00,831.50 L274.00,833.50 L283.00,834.50 L279.50,831.00 L272.50,828.00 L265.50,825.00 L259.00,821.50 L252.00,818.50 L246.00,814.50 L239.50,811.00 L233.00,807.50 L227.00,803.50 L221.00,799.50 L215.00,795.50 L209.00,791.50 L203.00,787.50 L197.00,783.50 L191.50,779.00 L186.00,774.50 L180.50,770.00 L175.00,765.50 L170.00,760.50 L164.00,756.50 L159.00,751.50 L154.00,746.50 L149.00,741.50 L144.00,736.50 L139.00,731.50 L134.00,726.50 L129.00,721.50 L124.50,716.00 L120.00,710.50 L115.50,705.00 L111.00,699.50 L106.50,694.00 L103.00,687.50 L98.50,682.00 L94.50,676.00 L91.00,669.50 L87.50,663.00 L84.50,656.00 L81.50,649.00 L78.50,642.00 L75.50,635.00 L73.50,627.00 L71.50,619.00 L69.50,611.00 L67.50,603.00 L66.00,594.50 L64.50,586.00 L64.50,576.00 L64.50,566.00 L64.50,556.00 L64.50,546.00 L65.50,537.00 L67.50,529.00 L68.50,520.00 L70.50,512.00 L72.50,504.00 L75.00,496.50 L77.00,488.50 L79.50,481.00 L82.50,474.00 L87.50,470.00 L88.50,479.00 L89.50,488.00 L91.50,496.00 L93.50,504.00 L94.50,513.00 L96.50,521.00 L99.00,528.50 L101.50,536.00 L104.50,543.00 L107.00,550.50 L110.00,557.50 L113.50,564.00 L116.50,571.00 L120.00,577.50 L123.50,584.00 L127.50,590.00 L131.50,596.00 L135.50,602.00 L139.50,608.00 L144.00,613.50 L148.50,619.00 L152.50,625.00 L157.50,630.00 L162.50,635.00 L167.50,640.00 L172.50,645.00 L178.00,649.50 L183.50,654.00 L188.50,659.00 L194.50,663.00 L200.50,667.00 L206.00,671.50 L212.00,675.50 L218.50,679.00 L224.50,683.00 L231.00,686.50 L238.00,689.50 L244.50,693.00 L251.00,696.50 L258.00,699.50 L264.50,703.00 L267.00,701.50 L261.50,697.00 L256.50,692.00 L251.00,687.50 L246.00,682.50 L241.00,677.50 L236.00,672.50 L231.50,667.00 L226.50,662.00 L222.00,656.50 L217.00,651.50 L213.00,645.50 L208.50,640.00 L204.00,634.50 L199.50,629.00 L195.50,623.00 L191.50,617.00 L187.50,611.00 L184.00,604.50 L180.50,598.00 L176.50,592.00 L173.50,585.00 L170.50,578.00 L167.50,571.00 L164.00,564.50 L161.50,557.00 L158.50,550.00 L156.50,542.00 L153.50,535.00 L151.50,527.00 L149.50,519.00 L148.00,510.50 L146.50,502.00 L145.00,493.50 L143.50,485.00 L143.50,475.00 L143.50,465.00 L143.50,455.00 L143.50,445.00 L143.50,435.00 L144.50,426.00 L146.00,417.50 L147.50,409.00 L149.50,401.00 L151.50,393.00 L153.50,385.00 L156.50,378.00 L159.50,371.00 L162.50,364.00 L165.50,357.00 L169.50,351.00 L173.00,344.50 L177.00,338.50 L181.00,332.50 L185.50,327.00 L189.50,321.00 L194.50,316.00 L199.50,311.00 L204.00,305.50 L209.00,300.50 L214.50,296.00 L219.50,291.00 L225.00,286.50 L230.50,282.00 L237.50,282.00 L235.00,289.50 L232.50,297.00 L230.00,304.50 L227.50,312.00 L225.50,320.00 L224.00,328.50 L222.50,337.00 L221.50,346.00 L219.50,354.00 L219.50,364.00 L218.50,373.00 L217.50,382.00 L217.50,392.00 L218.50,401.00 L219.50,410.00 L219.50,420.00 L221.50,428.00 L222.50,437.00 L224.00,445.50 L225.50,454.00 L227.50,462.00 L230.00,469.50 L232.50,477.00 L234.50,485.00 L237.00,492.50 L239.50,500.00 L242.50,507.00 L245.50,514.00 L248.50,521.00 L251.50,528.00 L255.00,534.50 L258.50,541.00 L261.50,548.00 L265.50,554.00 L269.00,560.50 L273.00,566.50 L277.00,572.50 L281.00,578.50 L285.00,584.50 L289.50,590.00 L293.50,596.00 L298.00,601.50 L302.50,607.00 L307.00,612.50 L311.50,618.00 L316.50,623.00 L321.50,628.00 L326.00,633.50 L331.50,638.00 L336.50,643.00 L342.00,647.50 L347.00,652.50 L352.50,657.00 L358.00,661.50 L364.00,665.50 L369.50,670.00 L375.00,674.50 L381.00,678.50 L386.50,683.00 L392.50,687.00 L398.50,691.00 L404.00,695.50 L410.50,699.00 L416.50,703.00 L423.00,706.50 L429.00,710.50 L435.00,714.50 L441.00,718.50 L447.50,722.00 L453.50,726.00 L459.50,730.00 L466.00,733.50 L472.00,737.50 L478.00,741.50 L484.00,745.50 L490.50,749.00 L496.50,753.00 L502.00,757.50 L508.00,761.50 L514.00,765.50 L519.50,770.00 L525.50,774.00 L531.00,778.50 L536.50,783.00 L542.00,787.50 L547.50,792.00 L553.00,796.50 L558.00,801.50 L563.00,806.50 L567.50,812.00 L572.00,817.50 L577.00,822.50 L581.00,828.50 L585.00,834.50 L588.50,841.00 L592.00,847.50 L595.50,854.00 L598.50,861.00 L601.50,868.00 L607.00,870.50 L613.00,866.50 L619.00,862.50 L624.50,858.00 L629.50,853.00 L633.50,847.00 L638.00,841.50 L641.50,835.00 L645.50,829.00 L648.50,822.00 L651.50,815.00 L654.50,808.00 L657.00,800.50 L659.50,793.00 L661.50,785.00 L663.00,776.50 L664.50,768.00 L666.50,760.00 L667.50,751.00 L668.50,742.00 L669.50,733.00 L670.50,724.00 L671.50,715.00 L671.50,705.00 L672.50,696.00 L672.50,686.00 L672.50,676.00 L672.50,666.00 L672.50,656.00 L672.50,646.00 L672.50,636.00 L672.50,626.00 L672.50,616.00 L673.50,607.00 L674.00,597.50 L674.50,588.00 L676.00,579.50 L677.50,571.00 L679.50,563.00 L681.50,555.00 L684.50,548.00 L689.00,542.50 L693.50,537.00 L698.50,532.00 L704.00,527.50 L710.50,524.00 L718.00,521.50 L726.00,519.50 L734.00,517.50 L728.00,514.50 L720.00,512.50 L713.00,509.50 L706.00,506.50 L699.50,503.00 L693.00,499.50 L687.50,495.00 L681.50,491.00 L676.00,486.50 L671.00,481.50 L666.00,476.50 L661.00,471.50 L656.50,466.00 L651.50,461.00 L647.50,455.00 L643.50,449.00 L639.50,443.00 L635.00,437.50 L639.00,432.50 L646.50,435.00 L654.00,437.50 L661.50,440.00 L669.00,442.50 L677.00,444.50 L685.00,446.50 L693.50,448.00 L702.00,449.50 L711.00,450.50 L719.00,452.50 L728.00,453.50 L737.00,454.50 L746.50,455.00 L755.00,456.50 L765.00,456.50 L774.00,457.50 L783.50,458.00 L792.50,459.00 L801.50,460.00 L810.00,461.50 L818.50,463.00 L827.00,464.50 L834.50,467.00 L842.00,469.50 L849.50,472.00 L856.00,475.50 L861.50,480.00 L867.00,484.50 L872.00,489.50 L876.50,495.00 L879.50,502.00 L881.50,510.00 L884.00,517.50 L891.00,520.50 L898.00,523.50 L904.00,527.50 L909.50,532.00 L915.00,536.50 L920.00,541.50 L925.00,546.50 L930.00,551.50 L934.50,557.00 L938.50,563.00 L937.00,567.50 L929.00,565.50 L920.00,564.50 L911.00,563.50 L902.00,562.50 L892.00,562.50 L883.00,563.50 L874.00,564.50 L866.00,566.50 L858.00,568.50 L851.00,571.50 L844.00,574.50 L837.50,578.00 L831.50,582.00 L826.50,587.00 L822.50,593.00 L818.50,599.00 L815.50,606.00 L812.50,613.00 L809.50,620.00 L807.50,628.00 L806.00,636.50 L805.00,645.50 L804.50,655.00 L804.50,665.00 L804.50,675.00 L805.50,684.00 L807.50,692.00 L808.50,701.00 L810.50,709.00 L812.00,717.50 L814.50,725.00 L816.50,733.00 L819.00,740.50 L821.50,748.00 L824.50,755.00 L827.50,762.00 L830.50,769.00 L833.50,776.00 L836.50,783.00 L840.00,789.50 L843.50,796.00 L847.00,802.50 L850.50,809.00 L854.50,815.00 L858.00,821.50 L862.00,827.50 L866.00,833.50 L870.50,839.00 L874.50,845.00 L879.00,850.50 L883.50,856.00 L888.00,861.50 L892.50,867.00 L897.00,872.50 L901.50,878.00 L907.50,881.00 L912.00,875.50 L915.50,869.00 L919.50,863.00 L924.00,857.50 L928.50,852.00 L932.50,846.00 L937.00,840.50 L941.50,835.00 L946.00,829.50 L951.00,824.50 L956.00,819.50 L960.50,814.00 L966.00,809.50 L971.00,804.50 L976.00,799.50 L981.00,794.50 L987.00,790.50 L992.00,785.50 L997.50,781.00 L1003.50,777.00 L1009.00,772.50 L1015.00,768.50 L1021.00,764.50 L1026.50,760.00 L1033.00,756.50 L1038.50,752.00 L1045.00,748.50 L1051.00,744.50 L1057.00,740.50 L1063.00,736.50 L1069.00,732.50 L1075.00,728.50 L1081.00,724.50 L1087.00,720.50 L1093.50,717.00 L1099.50,713.00 L1105.50,709.00 L1111.50,705.00 L1117.50,701.00 L1123.50,697.00 L1129.00,692.50 L1135.00,688.50 L1141.00,684.50 L1146.50,680.00 L1152.00,675.50 L1157.50,671.00 L1163.50,667.00 L1169.00,662.50 L1174.50,658.00 L1179.50,653.00 L1185.00,648.50 L1190.50,644.00 L1195.00,638.50 L1200.50,634.00 L1205.50,629.00 L1210.00,623.50 L1215.00,618.50 L1220.00,613.50 L1224.50,608.00 L1229.50,603.00 L1234.00,597.50 L1238.50,592.00 L1242.50,586.00 L1247.00,580.50 L1251.50,575.00 L1255.50,569.00 L1259.50,563.00 L1263.50,557.00 L1267.50,551.00 L1271.00,544.50 L1274.50,538.00 L1278.50,532.00 L1281.50,525.00 L1285.50,519.00 L1288.50,512.00 L1291.50,505.00 L1294.50,498.00 L1297.50,491.00 L1300.00,483.50 L1302.50,476.00 L1305.00,468.50 L1307.50,461.00 L1309.50,453.00 L1311.50,445.00 L1313.50,437.00 L1315.00,428.50 L1316.50,420.00 L1317.50,411.00 L1318.50,402.00 L1318.50,392.00 L1319.50,383.00 L1319.50,373.00 L1318.50,364.00 L1317.50,355.00 L1316.50,346.00 L1315.50,337.00 L1313.50,329.00 L1311.50,321.00 L1309.50,313.00 L1307.50,305.00 L1305.00,297.50 L1302.50,290.00 L1299.50,283.00 L1304.50,281.00 L1310.00,285.50 L1315.50,290.00 L1321.00,294.50 L1326.00,299.50 L1331.00,304.50 L1335.50,310.00 L1340.50,315.00 L1345.00,320.50 L1349.50,326.00 L1354.00,331.50 L1358.00,337.50 L1362.50,343.00 L1366.00,349.50 L1369.50,356.00 L1373.50,362.00 L1376.50,369.00 L1379.50,376.00 L1382.50,383.00 L1384.50,391.00 L1387.50,398.00 L1389.50,406.00 L1391.50,414.00 L1392.50,423.00 L1394.50,431.00 L1394.50,441.00 L1395.50,450.00 L1395.50,460.00 L1395.50,470.00 L1394.50,479.00 L1393.50,488.00 L1392.50,497.00 L1391.00,505.50 L1389.50,514.00 L1387.50,522.00 L1385.00,529.50 L1382.50,537.00 L1380.00,544.50 L1377.50,552.00 L1374.50,559.00 L1371.50,566.00 L1368.50,573.00 L1365.50,580.00 L1361.50,586.00 L1358.00,592.50 L1354.50,599.00 L1350.50,605.00 L1347.00,611.50 L1343.00,617.50 L1338.50,623.00 L1334.50,629.00 L1330.00,634.50 L1325.50,640.00 L1321.00,645.50 L1316.00,650.50 L1311.50,656.00 L1306.50,661.00 L1302.00,666.50 L1297.00,671.50 L1292.00,676.50 L1287.00,681.50 L1281.50,686.00 L1276.50,691.00 L1271.00,695.50 L1265.50,700.00 L1260.00,704.50 L1263.50,705.00 L1270.50,702.00 L1277.00,698.50 L1284.00,695.50 L1290.00,691.50 L1297.00,688.50 L1303.00,684.50 L1309.50,681.00 L1315.50,677.00 L1322.00,673.50 L1328.00,669.50 L1333.50,665.00 L1339.00,660.50 L1345.00,656.50 L1350.50,652.00 L1356.00,647.50 L1361.00,642.50 L1366.50,638.00 L1371.00,632.50 L1376.50,628.00 L1381.00,622.50 L1386.00,617.50 L1390.50,612.00 L1394.50,606.00 L1399.00,600.50 L1403.00,594.50 L1407.00,588.50 L1411.00,582.50 L1415.00,576.50 L1418.50,570.00 L1421.50,563.00 L1425.00,556.50 L1428.00,549.50 L1431.00,542.50 L1433.50,535.00 L1436.50,528.00 L1438.50,520.00 L1440.50,512.00 L1442.50,504.00 L1444.50,496.00 L1445.50,487.00 L1447.00,478.50 L1449.00,470.50 L1453.50,474.00 L1456.00,481.50 L1458.50,489.00 L1461.50,496.00 L1463.50,504.00 L1465.50,512.00 L1467.50,520.00 L1468.50,529.00 L1469.50,538.00 L1470.50,547.00 L1470.50,557.00 L1471.50,566.00 L1470.50,575.00 L1469.50,584.00 L1469.00,593.50 L1467.50,602.00 L1465.50,610.00 L1464.00,618.50 L1462.00,626.50 L1459.50,634.00 L1456.50,641.00 L1454.00,648.50 L1451.00,655.50 L1447.50,662.00 L1443.50,668.00 L1440.00,674.50 L1436.00,680.50 L1432.00,686.50 L1428.00,692.50 L1423.50,698.00 L1419.50,704.00 L1415.00,709.50 L1410.00,714.50 L1405.50,720.00 L1400.50,725.00 L1396.00,730.50 L1391.00,735.50 L1385.50,740.00 L1381.00,745.50 L1375.50,750.00 L1370.50,755.00 L1365.00,759.50 L1359.50,764.00 L1354.00,768.50 L1348.50,773.00 L1342.50,777.00 L1337.00,781.50 L1331.00,785.50 L1325.00,789.50 L1319.00,793.50 L1313.00,797.50 L1307.00,801.50 L1301.00,805.50 L1294.50,809.00 L1288.00,812.50 L1281.50,816.00 L1275.00,819.50 L1268.00,822.50 L1261.00,825.50 L1254.50,829.00 L1247.50,832.00 L1255.00,832.50 L1264.00,831.50 L1272.00,829.50 L1280.50,828.00 L1288.50,826.00 L1297.00,824.50 L1304.00,821.50 L1312.00,819.50 L1319.50,817.00 L1326.50,814.00 L1334.00,811.50 L1341.00,808.50 L1348.00,805.50 L1354.50,802.00 L1361.00,798.50 L1368.00,795.50 L1375.00,792.50 L1381.00,788.50 L1387.50,785.00 L1393.50,781.00 L1399.50,777.00 L1405.50,773.00 L1411.50,769.00 L1417.50,765.00 L1423.00,760.50 L1428.50,756.00 L1434.00,751.50 L1439.50,747.00 L1445.00,742.50 L1450.00,737.50 L1455.00,732.50 L1459.50,727.00 L1464.50,722.00 L1469.00,716.50 L1473.50,711.00 L1478.00,705.50 L1483.00,702.50 L1481.50,710.00 L1480.50,719.00 L1479.00,727.50 L1477.50,736.00 L1475.50,744.00 L1472.50,751.00 L1470.50,759.00 L1468.00,766.50 L1465.50,774.00 L1462.50,781.00 L1459.50,788.00 L1455.50,794.00 L1452.50,801.00 L1448.50,807.00 L1444.50,813.00 L1440.50,819.00 L1436.00,824.50 L1431.50,830.00 L1427.00,835.50 L1422.00,840.50 L1417.00,845.50 L1412.00,850.50 L1407.00,855.50 L1401.50,860.00 L1396.50,865.00 L1391.00,869.50 L1385.00,873.50 L1379.50,878.00 L1373.50,882.00 L1368.00,886.50 L1361.50,890.00 L1355.50,894.00 L1349.00,897.50 L1342.50,901.00 L1336.00,904.50 L1329.00,907.50 L1322.00,910.50 L1315.50,914.00 L1308.00,916.50 L1301.00,919.50 L1293.00,921.50 L1286.00,924.50 L1278.00,926.50 L1271.00,929.50 L1262.50,931.00 L1254.50,933.00 L1246.50,935.00 L1238.00,936.50 L1230.00,938.50 L1221.00,939.50 L1213.00,941.50 L1204.00,942.50 L1195.00,943.50 L1187.00,945.50 L1177.00,945.50 L1169.00,947.50 L1159.00,947.50 L1149.00,947.50 L1140.00,948.50 L1130.00,948.50 L1121.00,949.50 L1121.50,952.00 L1129.50,954.00 L1137.50,956.00 L1146.00,957.50 L1154.00,959.50 L1163.00,960.50 L1171.00,962.50 L1180.00,963.50 L1188.00,965.50 L1197.00,966.50 L1206.00,967.50 L1216.00,967.50 L1225.00,968.50 L1235.00,968.50 L1244.00,969.50 L1253.00,968.50 L1263.00,968.50 L1272.00,967.50 L1281.00,966.50 L1290.00,965.50 L1299.00,964.50 L1307.00,962.50 L1316.00,961.50 L1324.00,959.50 L1332.50,958.00 L1341.00,956.50 L1349.00,954.50 L1357.00,952.50 L1364.00,949.50 L1372.00,947.50 L1379.50,945.00 L1386.50,942.00 L1394.00,939.50 L1401.00,936.50 L1407.50,933.00 L1412.50,935.00 L1409.00,941.50 L1405.00,947.50 L1401.00,953.50 L1396.50,959.00 L1392.00,964.50 L1387.50,970.00 L1382.50,975.00 L1378.00,980.50 L1372.50,985.00 L1367.50,990.00 L1362.00,994.50 L1356.50,999.00 L1351.00,1003.50 L1345.00,1007.50 L1339.00,1011.50 L1333.00,1015.50 L1327.00,1019.50 L1321.00,1023.50 L1314.00,1026.50 L1307.00,1029.50 L1300.50,1033.00 L1293.50,1036.00 L1286.00,1038.50 L1279.00,1041.50 L1271.00,1043.50 L1263.00,1045.50 L1255.00,1047.50 L1247.00,1049.50 L1239.00,1051.50 L1230.00,1052.50 L1221.00,1053.50 L1212.00,1054.50 L1203.00,1055.50 L1193.00,1055.50 L1183.00,1055.50 L1173.00,1055.50 L1163.00,1055.50 L1153.00,1055.50 L1144.00,1054.50 L1135.00,1053.50 L1126.00,1052.50 L1117.00,1051.50 L1108.00,1050.50 L1099.50,1049.00 L1091.00,1047.50 L1083.00,1045.50 L1074.50,1044.00 L1066.50,1042.00 L1058.50,1040.00 L1050.00,1038.50 L1042.50,1036.00 L1035.00,1033.50 L1032.00,1035.50 L1038.50,1039.00 L1044.00,1043.50 L1050.00,1047.50 L1056.50,1051.00 L1063.00,1054.50 L1069.50,1058.00 L1076.00,1061.50 L1083.00,1064.50 L1090.00,1067.50 L1096.50,1071.00 L1104.00,1073.50 L1111.00,1076.50 L1118.50,1079.00 L1126.00,1081.50 L1134.00,1083.50 L1142.00,1085.50 L1150.00,1087.50 L1158.50,1089.00 L1167.00,1090.50 L1176.00,1091.50 L1185.00,1092.50 L1194.00,1093.50 L1203.00,1094.50 L1213.00,1094.50 L1223.00,1094.50 L1233.00,1094.50 L1242.00,1093.50 L1252.00,1093.50 L1252.50,1097.00 L1247.00,1101.50 L1241.00,1105.50 L1234.00,1108.50 L1227.00,1111.50 L1220.00,1114.50 L1213.00,1117.50 L1205.00,1119.50 L1198.00,1122.50 L1190.50,1125.00 L1183.00,1127.50 L1175.00,1129.50 L1166.00,1130.50 L1158.00,1132.50 L1150.00,1134.50 L1141.00,1135.50 L1131.00,1135.50 L1121.00,1135.50 L1111.00,1135.50 L1101.00,1135.50 L1091.00,1135.50 L1082.00,1134.50 L1073.00,1133.50 L1064.00,1132.50 L1056.00,1130.50 L1047.50,1129.00 L1039.00,1127.50 L1031.00,1125.50 L1023.00,1123.50 L1015.00,1121.50 L1007.50,1119.00 L1000.00,1116.50 L992.00,1114.50 L984.00,1112.50 L976.50,1110.00 L969.00,1107.50 L961.00,1105.50 L953.00,1103.50 L945.00,1101.50 L936.00,1100.50 L927.00,1099.50 L917.00,1099.50 L908.00,1100.50 L899.50,1102.00 L892.00,1104.50 L884.00,1106.50 L877.00,1109.50 L869.50,1112.00 L863.00,1115.50 L857.00,1119.50 L851.00,1123.50 L845.00,1127.50 L839.00,1131.50 L833.50,1136.00 L828.00,1140.50 L823.00,1145.50 L818.00,1150.50 L813.00,1155.50 L808.00,1160.50 L803.50,1166.00 L799.00,1171.50 L794.50,1177.00 L790.00,1182.50 L786.00,1188.50 L782.50,1195.00 L778.50,1201.00 L774.50,1207.00 L771.00,1213.50 Z" fill="#C7A85B" stroke="#FFFFFF" stroke-width="2"/>
</svg>
